<?xml version="1.0" standalone="no"?>
<!DOCTYPE svg PUBLIC "-//W3C//DTD SVG 20010904//EN"
 "http://www.w3.org/TR/2001/REC-SVG-20010904/DTD/svg10.dtd">
<svg version="1.0" xmlns="http://www.w3.org/2000/svg"
 width="100.000000pt" height="100.000000pt" viewBox="0 0 100.000000 100.000000"
 preserveAspectRatio="xMidYMid meet">

<g transform="translate(0.000000,100.000000) scale(0.100000,-0.100000)"
fill="#000000" stroke="none">
<path d="M440 820 c0 -127 2 -142 20 -160 11 -11 29 -20 40 -20 11 0 29 9 40
20 18 18 20 33 20 160 l0 140 -60 0 -60 0 0 -140z"/>
<path d="M343 808 c-23 -17 -54 -54 -70 -82 -27 -49 -28 -58 -31 -202 -5 -207
12 -259 108 -332 l45 -35 3 67 c2 52 -2 77 -18 110 -17 36 -20 62 -20 172 0
111 3 133 20 162 15 24 20 50 20 102 0 39 -4 70 -8 70 -5 0 -27 -14 -49 -32z"/>
<path d="M600 770 c0 -52 5 -78 20 -102 17 -29 20 -51 20 -163 0 -111 -3 -137
-20 -170 -14 -28 -20 -59 -20 -107 l0 -69 28 15 c35 18 85 72 108 116 16 30
19 59 19 210 0 175 0 175 -29 228 -26 46 -95 112 -118 112 -4 0 -8 -31 -8 -70z"/>
<path d="M460 340 c-18 -18 -20 -33 -20 -160 l0 -140 60 0 60 0 0 140 c0 127
-2 142 -20 160 -11 11 -29 20 -40 20 -11 0 -29 -9 -40 -20z"/>
</g>
</svg>
