<?xml version="1.0" standalone="no"?>
<!DOCTYPE svg PUBLIC "-//W3C//DTD SVG 20010904//EN"
 "http://www.w3.org/TR/2001/REC-SVG-20010904/DTD/svg10.dtd">
<svg version="1.0" xmlns="http://www.w3.org/2000/svg"
 width="100.000000pt" height="100.000000pt" viewBox="0 0 100.000000 100.000000"
 preserveAspectRatio="xMidYMid meet">

<g transform="translate(0.000000,100.000000) scale(0.100000,-0.100000)"
fill="#000000" stroke="none">
<path d="M430 971 c-71 -23 -131 -74 -166 -141 -16 -29 -19 -63 -22 -196 -5
-218 11 -268 108 -342 l45 -35 3 67 c2 52 -2 77 -18 110 -17 36 -20 62 -20
182 0 121 3 143 20 172 59 97 192 93 242 -8 28 -54 26 -290 -2 -345 -14 -28
-20 -59 -20 -107 l0 -69 28 15 c35 18 85 72 108 116 17 31 19 59 19 220 0 161
-2 189 -19 220 -26 49 -74 98 -121 122 -43 22 -144 33 -185 19z"/>
<path d="M460 580 c-19 -19 -20 -33 -20 -270 0 -237 1 -251 20 -270 11 -11 29
-20 40 -20 11 0 29 9 40 20 19 19 20 33 20 270 0 237 -1 251 -20 270 -11 11
-29 20 -40 20 -11 0 -29 -9 -40 -20z"/>
</g>
</svg>
