<?xml version="1.0" standalone="no"?>
<!DOCTYPE svg PUBLIC "-//W3C//DTD SVG 20010904//EN"
 "http://www.w3.org/TR/2001/REC-SVG-20010904/DTD/svg10.dtd">
<svg version="1.0" xmlns="http://www.w3.org/2000/svg"
 width="100.000000pt" height="100.000000pt" viewBox="0 0 100.000000 100.000000"
 preserveAspectRatio="xMidYMid meet">

<g transform="translate(0.000000,100.000000) scale(0.100000,-0.100000)"
fill="#000000" stroke="none">
<path d="M460 960 c-19 -19 -20 -33 -20 -270 0 -237 1 -251 20 -270 11 -11 29
-20 40 -20 11 0 29 9 40 20 19 19 20 33 20 270 0 237 -1 251 -20 270 -11 11
-29 20 -40 20 -11 0 -29 -9 -40 -20z"/>
<path d="M350 708 c-97 -74 -113 -124 -108 -342 3 -176 9 -198 72 -264 53 -57
101 -77 186 -77 85 0 133 20 186 77 65 69 69 84 69 288 0 161 -2 189 -19 220
-23 44 -73 98 -108 116 l-28 15 0 -69 c0 -48 6 -79 20 -107 28 -55 30 -291 2
-344 -50 -99 -177 -105 -239 -12 -21 31 -23 45 -23 174 0 121 3 147 20 183 16
33 20 58 18 110 l-3 67 -45 -35z"/>
</g>
</svg>
