<?xml version="1.0" standalone="no"?>
<!DOCTYPE svg PUBLIC "-//W3C//DTD SVG 20010904//EN"
 "http://www.w3.org/TR/2001/REC-SVG-20010904/DTD/svg10.dtd">
<svg version="1.0" xmlns="http://www.w3.org/2000/svg"
 width="512.000000pt" height="512.000000pt" viewBox="0 0 512.000000 512.000000"
 preserveAspectRatio="xMidYMid meet">

<g transform="translate(0.000000,512.000000) scale(0.100000,-0.100000)"
fill="#000000" stroke="none">
<path d="M4305 5105 c-81 -18 -155 -48 -223 -91 -77 -49 -323 -294 -376 -374
-113 -171 -144 -377 -86 -574 l23 -77 -60 -61 -60 -60 -69 22 c-139 45 -376
36 -424 -15 -29 -31 -24 -81 12 -108 24 -18 32 -19 84 -9 72 15 187 15 238 1
l39 -11 -83 -83 c-70 -70 -89 -84 -124 -89 -86 -13 -144 -51 -271 -179 -129
-129 -170 -191 -181 -271 -6 -38 -17 -54 -90 -127 -46 -46 -86 -81 -88 -78
-16 15 -26 148 -17 214 21 149 60 215 227 386 68 70 124 134 124 142 0 50 -55
96 -98 83 -11 -4 -80 -68 -153 -144 -138 -141 -179 -200 -219 -317 -46 -133
-46 -300 -1 -432 l20 -58 -62 -62 -62 -62 -58 20 c-132 45 -299 45 -432 -1
-119 -41 -175 -80 -329 -230 -201 -196 -254 -277 -291 -444 -23 -102 -17 -252
15 -350 l22 -69 -60 -60 -61 -60 -74 22 c-158 47 -363 37 -420 -20 -23 -24
-28 -35 -23 -57 11 -45 44 -65 96 -58 112 15 162 18 211 12 93 -12 93 -16 5
-105 -70 -70 -86 -82 -130 -91 -90 -19 -137 -50 -257 -170 -133 -132 -162
-171 -184 -255 -19 -73 -13 -139 21 -215 78 -173 278 -242 454 -158 60 29 289
258 318 318 12 25 26 68 32 96 9 44 21 61 90 129 44 43 82 76 86 73 23 -24 30
-151 13 -244 -21 -118 -68 -194 -211 -340 -71 -73 -154 -149 -183 -169 -203
-140 -483 -118 -660 52 -167 160 -210 400 -108 612 29 61 58 97 164 206 116
118 129 136 129 167 0 44 -25 68 -72 68 -31 0 -47 -12 -164 -132 -72 -73 -146
-160 -166 -193 -56 -92 -89 -204 -95 -315 -7 -126 13 -218 73 -340 61 -123
161 -225 280 -287 121 -63 180 -77 319 -78 106 0 130 3 209 29 51 17 118 49
160 76 85 57 328 301 378 380 106 168 134 374 77 566 l-22 75 60 61 60 60 69
-22 c139 -45 376 -36 424 15 29 31 24 81 -12 108 -24 18 -32 19 -84 9 -72 -15
-187 -15 -238 -1 l-39 11 83 83 c70 70 89 84 124 89 86 13 144 51 271 179 128
128 169 188 181 269 6 37 19 55 90 128 45 46 85 82 88 79 15 -15 25 -154 16
-218 -20 -145 -61 -213 -226 -382 -68 -70 -124 -134 -124 -142 0 -50 55 -96
98 -83 11 4 80 68 153 144 138 141 179 200 219 318 45 130 45 301 1 431 l-20
58 62 62 62 62 58 -20 c132 -45 299 -45 432 1 118 41 176 80 324 225 204 199
259 282 296 449 23 102 17 252 -15 350 l-22 69 60 60 61 60 78 -24 c66 -20 98
-24 203 -23 109 0 135 4 205 28 123 42 187 87 343 240 163 160 222 241 266
365 28 78 30 97 30 211 0 145 -13 201 -77 324 -133 258 -448 404 -732 341z
m310 -165 c90 -31 187 -101 245 -179 131 -174 144 -400 33 -590 -35 -61 -263
-293 -335 -341 -101 -67 -241 -101 -359 -86 -93 12 -93 16 -5 105 73 73 83 80
145 95 88 22 149 65 275 197 110 115 139 162 156 249 43 227 -181 434 -405
375 -84 -22 -123 -51 -255 -184 -120 -120 -151 -167 -170 -257 -9 -44 -21 -61
-90 -129 -44 -43 -82 -76 -86 -73 -11 12 -24 83 -24 140 0 82 17 152 57 238
31 66 55 94 187 226 131 131 161 156 226 187 41 20 98 40 125 46 73 15 210 6
280 -19z m-85 -335 c29 -15 62 -50 80 -85 18 -33 16 -119 -3 -155 -9 -17 -63
-77 -121 -135 -101 -100 -106 -103 -106 -75 -1 39 -34 113 -68 148 -34 36 -92
66 -143 75 l-39 7 108 108 c72 72 122 113 148 122 42 16 102 11 144 -10z
m-323 -410 c15 -17 23 -39 23 -63 0 -35 -18 -55 -403 -439 -389 -390 -404
-403 -440 -403 -29 0 -46 7 -68 29 -22 22 -29 39 -29 68 0 36 13 51 404 442
l404 404 44 -6 c29 -4 50 -14 65 -32z m-439 -915 c9 -189 -37 -289 -221 -477
-179 -183 -258 -232 -408 -253 -64 -9 -203 1 -218 16 -3 3 33 43 79 88 73 71
91 84 128 90 82 12 141 52 270 181 127 128 162 182 177 270 6 32 23 56 88 122
95 97 99 96 105 -37z m-604 -7 c37 -72 126 -132 196 -133 l35 0 -105 -105
-105 -105 -7 40 c-20 114 -124 210 -229 210 -20 0 -6 17 81 105 l105 105 6
-43 c4 -24 14 -58 23 -74z m-163 -272 c22 -22 29 -39 29 -68 0 -36 -13 -51
-403 -440 -389 -390 -404 -403 -440 -403 -29 0 -46 7 -68 29 -22 22 -29 39
-29 68 0 36 13 51 403 440 389 390 404 403 440 403 29 0 46 -7 68 -29z m-871
-432 c35 -5 67 -12 69 -15 3 -2 -32 -42 -78 -88 -73 -73 -89 -84 -127 -90 -80
-11 -142 -52 -271 -181 -128 -127 -166 -185 -179 -271 -5 -35 -19 -54 -89
-124 l-83 -83 -11 39 c-16 56 -13 180 4 249 28 106 71 171 209 313 172 177
258 231 395 251 80 12 89 12 161 0z m-165 -494 c20 -40 84 -101 123 -116 15
-6 44 -14 65 -17 l37 -7 -105 -105 -105 -105 0 35 c-1 104 -116 219 -220 220
l-35 0 105 105 105 105 7 -40 c4 -22 14 -55 23 -75z m-164 -274 c22 -22 29
-39 29 -68 0 -36 -13 -51 -403 -440 -384 -385 -404 -403 -439 -403 -52 0 -88
33 -95 88 l-6 44 404 404 c391 391 406 404 442 404 29 0 46 -7 68 -29z m-1029
-936 c33 -61 104 -110 179 -123 l40 -7 -113 -111 c-89 -88 -122 -114 -155
-123 -134 -36 -258 88 -222 222 9 33 35 66 122 155 l111 113 11 -48 c6 -26 19
-61 27 -78z"/>
</g>
</svg>
