<?xml version="1.0" encoding="iso-8859-1"?>
<!-- Uploaded to: SVG Repo, www.svgrepo.com, Generator: SVG Repo Mixer Tools -->
<svg fill="#000000" height="800px" width="800px" version="1.1" id="Layer_1" xmlns="http://www.w3.org/2000/svg" xmlns:xlink="http://www.w3.org/1999/xlink" 
	 viewBox="0 0 512 512" xml:space="preserve">
<g>
	<g>
		<path d="M433.633,156.735h-83.592c-43.212,0-78.367,35.156-78.367,78.367v5.224h-31.347v-5.224
			c0-43.212-35.156-78.367-78.367-78.367H78.367C35.156,156.735,0,191.89,0,235.102v41.796c0,43.212,35.156,78.367,78.367,78.367
			h83.592c43.212,0,78.367-35.156,78.367-78.367v-5.224h31.347v5.224c0,43.212,35.156,78.367,78.367,78.367h83.592
			c43.212,0,78.367-35.156,78.367-78.367v-41.796C512,191.89,476.844,156.735,433.633,156.735z M208.98,240.327H151.51v31.347
			h57.469v5.224c0,25.928-21.092,47.02-47.02,47.02H78.367c-25.927,0-47.02-21.092-47.02-47.02v-41.796
			c0-25.928,21.093-47.02,47.02-47.02h83.592c25.928,0,47.02,21.092,47.02,47.02V240.327z M480.653,276.898
			c0,25.928-21.092,47.02-47.02,47.02h-83.592c-25.928,0-47.02-21.092-47.02-47.02v-5.224h57.469v-31.347H303.02v-5.224
			c0-25.928,21.092-47.02,47.02-47.02h83.592c25.928,0,47.02,21.092,47.02,47.02V276.898z"/>
	</g>
</g>
</svg>